Coordinates
version=1
nRows=18
nColumns=28
inDegrees=yes

Units are S.I. units (second, meters, Newtons, ...)
Angles are in degrees.

endheader
time	pelvis_tilt	pelvis_list	pelvis_rotation	pelvis_tx	pelvis_ty	pelvis_tz	hip_flexion_r	hip_adduction_r	hip_rotation_r	knee_angle_r	ankle_angle_r	subtalar_angle_r	mtp_angle_r	hip_flexion_l	hip_adduction_l	hip_rotation_l	knee_angle_l	socket_flexion	socket_adduction	socket_rotation	socket_tx	socket_ty	socket_tz	foot_flex	lumbar_extension	lumbar_bending	lumbar_rotation
      0.31666667	      0.40601908	      0.31576798	     -2.39255329	     -0.42232290	      1.02761613	      0.25501986	     17.01219277	     -2.84164124	     -5.93162896	    -62.13116625	     12.58274866	    -12.78517366	     -3.97206562	     -2.20017297	     -0.09104471	      9.03035960	      8.92388190	      8.20986590	      0.00000000	      0.00000000	      0.00000000	      0.00000000	      0.00000000	     -0.17259649	    -10.00361039	     -2.36224596	      0.19473191
      0.32083333	      0.42832843	      0.25739301	     -2.25465630	     -0.41726226	      1.02801859	      0.25483428	     17.46497888	     -2.79717975	     -6.04224315	    -61.58131438	     12.79134086	    -12.77676898	     -4.02719818	     -2.53209698	     -0.13453202	      9.06388201	      8.90160844	      8.16670984	      0.00000000	      0.00000000	      0.00000000	      0.00000000	      0.00000000	     -0.05836152	    -10.08051295	     -2.29613175	      0.12276758
      0.32500000	      0.47024407	     -0.08181601	     -1.95777249	     -0.41208608	      1.02859651	      0.25436972	     17.76634226	     -2.47978928	     -6.38105916	    -60.85220280	     13.29241939	    -12.61555079	     -4.32128546	     -2.91988337	     -0.51006933	      9.36756017	      8.98510841	      8.16754633	      0.00000000	      0.00000000	      0.00000000	      0.00000000	      0.00000000	      0.06491745	    -10.17717625	     -1.81830178	     -0.20010458
      0.32916667	      0.61288216	     -0.31061611	     -1.64459919	     -0.40702848	      1.02922439	      0.25383125	     17.97760609	     -2.33822632	     -6.77130617	    -60.12983779	     13.67632424	    -12.46665101	     -4.96889721	     -3.37205598	     -0.75078432	      9.65824826	      8.99106732	      8.13672986	      0.00000000	      0.00000000	      0.00000000	      0.00000000	      0.00000000	      0.17203768	    -10.41335818	     -1.47383953	     -0.64735066
      0.33333333	      0.62570699	     -0.32769436	     -1.54187373	     -0.40198715	      1.02950076	      0.25374001	     18.41665863	     -2.33111400	     -6.84933918	    -59.49832579	     13.86817208	    -12.49013156	     -5.03175118	     -3.70289477	     -0.76326213	      9.68216328	      8.99278870	      8.09715772	      0.00000000	      0.00000000	      0.00000000	      0.00000000	      0.00000000	      0.28509418	    -10.46268571	     -1.45441949	     -0.67919244
      0.33750000	      0.67980296	     -0.64683899	     -1.25838690	     -0.39682489	      1.02999725	      0.25332917	     18.67170941	     -2.04406513	     -7.19244754	    -58.66133602	     14.26512474	    -12.43263425	     -5.49019333	     -4.08726476	     -1.12659793	      9.95920346	      9.04778672	      8.07847851	      0.00000000	      0.00000000	      0.00000000	      0.00000000	      0.00000000	      0.40608907	    -10.57724009	     -1.00997791	     -0.93883086
      0.34166667	      0.68899936	     -0.63900608	     -1.16805849	     -0.39185082	      1.03019893	      0.25324076	     19.09816091	     -2.07115927	     -7.27089591	    -57.97463909	     14.40837434	    -12.46143374	     -5.54407045	     -4.40112690	     -1.11026734	      9.97125478	      9.03126446	      8.04001706	      0.00000000	      0.00000000	      0.00000000	      0.00000000	      0.00000000	      0.50220504	    -10.64090478	     -1.02042482	     -0.97619277
      0.34583333	      0.85885036	     -0.98219178	     -0.79411559	     -0.38672957	      1.03082876	      0.25259663	     19.16868237	     -1.82972091	     -7.78233331	    -57.02414793	     14.76409168	    -12.47511711	     -6.41391848	     -4.89562651	     -1.50044486	     10.32580645	      9.09724602	      8.03817957	      0.00000000	      0.00000000	      0.00000000	      0.00000000	      0.00000000	      0.65116577	    -10.88821942	     -0.48711723	     -1.45448079
      0.35000000	      0.85272973	     -0.96016956	     -0.72697655	     -0.38172356	      1.03094368	      0.25265791	     19.58043394	     -1.84875310	     -7.83556323	    -56.26643905	     14.93615734	    -12.50829144	     -6.46118387	     -5.20403731	     -1.48490405	     10.34862201	      9.08218959	      7.97570453	      0.00000000	      0.00000000	      0.00000000	      0.00000000	      0.00000000	      0.74052943	    -10.92817335	     -0.54626676	     -1.46753882
      0.35416667	      0.84183237	     -1.00959520	     -0.63141005	     -0.37672221	      1.03107960	      0.25262795	     19.96051517	     -1.81272537	     -7.96509064	    -55.43888777	     15.15834232	    -12.56127189	     -6.52993842	     -5.51281909	     -1.55101608	     10.40275134	      9.10122744	      7.93471690	      0.00000000	      0.00000000	      0.00000000	      0.00000000	      0.00000000	      0.85309964	    -10.94969661	     -0.48254883	     -1.48600694
      0.35833333	      0.88627018	     -1.38287557	     -0.29793508	     -0.37150259	      1.03148916	      0.25216055	     20.09786498	     -1.48522753	     -8.40195176	    -54.33371695	     15.45511159	    -12.68029233	     -7.04968035	     -5.88049359	     -1.99707488	     10.72817958	      9.15039123	      7.91194758	      0.00000000	      0.00000000	      0.00000000	      0.00000000	      0.00000000	      1.00008306	    -11.02594460	      0.03246691	     -1.71668557
      0.36250000	      0.88313292	     -1.33455024	     -0.23668189	     -0.36662311	      1.03152470	      0.25218264	     20.47827283	     -1.55501896	     -8.49223668	    -53.49634889	     15.57281095	    -12.72577187	     -7.12602388	     -6.18553912	     -1.94956286	     10.73059426	      9.14855651	      7.87149248	      0.00000000	      0.00000000	      0.00000000	      0.00000000	      0.00000000	      1.09360232	    -11.08245973	     -0.02127820	     -1.75724172
      0.36666667	      0.95233138	     -1.61789980	      0.06603610	     -0.36151995	      1.03186094	      0.25179955	     20.58918625	     -1.32851921	     -8.89202218	    -52.35998986	     15.79952447	    -12.91255551	     -7.71686109	     -6.56498224	     -2.30234383	     11.01366739	      9.17621544	      7.82474698	      0.00000000	      0.00000000	      0.00000000	      0.00000000	      0.00000000	      1.23675521	    -11.19037745	      0.37981351	     -2.00899309
      0.37083333	      0.93406157	     -1.54220971	      0.10720391	     -0.35667616	      1.03179462	      0.25186107	     20.96825792	     -1.42097754	     -8.97545589	    -51.47485976	     15.90930288	    -12.95240624	     -7.78103101	     -6.85703036	     -2.22554834	     11.00172787	      9.18787677	      7.80310420	      0.00000000	      0.00000000	      0.00000000	      0.00000000	      0.00000000	      1.32359909	    -11.23903489	      0.29166717	     -2.03745776
      0.37500000	      0.90855653	     -1.53046525	      0.18897083	     -0.35172391	      1.03174784	      0.25187931	     21.28852929	     -1.44688910	     -9.10831704	    -50.48237234	     16.06612119	    -13.02251883	     -7.87175218	     -7.14393596	     -2.23038904	     11.04167071	      9.19036671	      7.75732266	      0.00000000	      0.00000000	      0.00000000	      0.00000000	      0.00000000	      1.44130613	    -11.23806769	      0.27476318	     -2.06546784
      0.37916667	      0.91248277	     -1.85318363	      0.50942262	     -0.34657035	      1.03194124	      0.25148454	     21.39370194	     -1.17253790	     -9.54355392	    -49.19934628	     16.24897314	    -13.26303411	     -8.38268996	     -7.45273933	     -2.64009869	     11.34683721	      9.21990421	      7.70960278	      0.00000000	      0.00000000	      0.00000000	      0.00000000	      0.00000000	      1.59304085	    -11.26036353	      0.72715765	     -2.24082647
      0.38333333	      0.88513915	     -1.75302739	      0.54509853	     -0.34180087	      1.03177030	      0.25157749	     21.73559988	     -1.29205949	     -9.63340989	    -48.21768862	     16.33813762	    -13.30599002	     -8.46097860	     -7.73046633	     -2.54027676	     11.33164745	      9.22962574	      7.69155774	      0.00000000	      0.00000000	      0.00000000	      0.00000000	      0.00000000	      1.68563092	    -11.30019182	      0.60915446	     -2.28098419
      0.38750000	      0.84450328	     -1.68933350	      0.61283671	     -0.33692632	      1.03158783	      0.25164586	     22.03889554	     -1.36767301	     -9.74946908	    -47.15387478	     16.45654647	    -13.36498073	     -8.54423598	     -7.99703716	     -2.49020258	     11.35373257	      9.22927499	      7.64945493	      0.00000000	      0.00000000	      0.00000000	      0.00000000	      0.00000000	      1.79646772	    -11.29696807	      0.53222350	     -2.31119632
